<?xml version="1.0" encoding="utf-8"?>
<!-- Generator: Adobe Illustrator 16.0.0, SVG Export Plug-In . SVG Version: 6.00 Build 0)  -->
<!DOCTYPE svg PUBLIC "-//W3C//DTD SVG 1.1//EN" "http://www.w3.org/Graphics/SVG/1.1/DTD/svg11.dtd">
<svg version="1.1" id="图层_1" xmlns="http://www.w3.org/2000/svg" xmlns:xlink="http://www.w3.org/1999/xlink" x="0px" y="0px"
	 width="34.644px" height="41.716px" viewBox="17.322 20.856 34.644 41.716" enable-background="new 17.322 20.856 34.644 41.716"
	 xml:space="preserve">
<polygon fill="#EECCC2" points="32.454,62.572 48.37,62.572 51.453,51.512 49.703,42.066 46.537,41.338 43.958,39.065 41.37,40.452 
	39.434,38.199 37.287,38.732 36.953,28.065 34.855,26.482 32.454,28.399 32.454,43.565 27.9,44.527 26.704,48.482 27.537,53.982 
	29.878,57.815 "/>
<path fill="#DD5352" d="M23.601,35.675c-3.462,0-6.279-2.816-6.279-6.278c0-3.461,2.816-6.277,6.279-6.277
	c3.462,0,6.278,2.816,6.278,6.277C29.878,32.858,27.062,35.675,23.601,35.675z M23.601,25.119c-2.36,0-4.279,1.919-4.279,4.277
	c0,2.359,1.919,4.278,4.279,4.278c2.359,0,4.278-1.919,4.278-4.278C27.879,27.038,25.959,25.119,23.601,25.119z"/>
<path fill="#DD5352" d="M25.109,32.659c-0.323,0-0.641-0.156-0.833-0.445L22.6,29.7v-2.564c0-0.553,0.447-1,1-1c0.552,0,1,0.447,1,1
	v1.959l1.34,2.01c0.307,0.46,0.183,1.081-0.277,1.387C25.492,32.604,25.299,32.659,25.109,32.659z"/>
<path fill="#DD5352" d="M32.576,34.478c-2.797-0.987-4.676-3.645-4.676-6.611c0-3.865,3.145-7.011,7.01-7.011
	c3.866,0,7.01,3.145,7.01,7.011c0,2.966-1.878,5.622-4.673,6.61l-0.666-1.886c1.997-0.705,3.339-2.604,3.339-4.725
	c0-2.763-2.247-5.01-5.01-5.01c-2.762,0-5.01,2.247-5.01,5.01c0,2.12,1.343,4.021,3.342,4.726L32.576,34.478z"/>
<path fill="#303232" d="M42.696,45.231h-2v-4.524c0-0.695-0.566-1.262-1.262-1.262c-0.696,0-1.262,0.566-1.262,1.262v0.754h-2
	v-0.754c0-1.799,1.464-3.262,3.262-3.262c1.799,0,3.262,1.464,3.262,3.262V45.231z"/>
<path fill="#303232" d="M47.22,45.984h-2v-4.523c0-0.696-0.566-1.262-1.262-1.262s-1.262,0.566-1.262,1.262v3.771h-2v-3.771
	c0-1.799,1.463-3.262,3.262-3.262s3.262,1.464,3.262,3.262V45.984z"/>
<path fill="#303232" d="M33.648,50.51h-2V28.642c0-1.798,1.463-3.262,3.261-3.262c1.799,0,3.263,1.464,3.263,3.262V45.23h-2V28.642
	c0-0.695-0.567-1.262-1.263-1.262s-1.261,0.566-1.261,1.262V50.51z"/>
<path fill="#303232" d="M33.648,62.572h-2c0-0.638-0.834-1.762-1.717-2.951c-1.508-2.033-3.573-4.816-3.933-8.384
	c-0.092-0.915-0.125-2.267-0.098-4.015c0.03-1.989,1.392-3.741,3.311-4.262l3.302-0.895l0.524,1.932l-3.302,0.895
	c-1.063,0.287-1.817,1.258-1.834,2.36c-0.025,1.649,0.005,2.958,0.088,3.784c0.305,3.018,2.104,5.443,3.55,7.392
	C32.716,60.017,33.648,61.273,33.648,62.572z"/>
<path fill="#303232" d="M49.482,62.572h-2c0-0.596,0.248-1.43,0.623-2.694c0.954-3.208,2.73-9.179,1.353-15.931
	c-0.292-1.43-0.769-1.468-1.054-1.49c-0.843-0.072-1.512,0.497-1.519,0.503l-1.332-1.491c0.131-0.116,1.339-1.134,3.006-1.006
	c1.503,0.117,2.464,1.155,2.857,3.083c1.479,7.242-0.39,13.527-1.395,16.903C49.757,61.342,49.482,62.267,49.482,62.572z"/>
</svg>
