<?xml version="1.0" encoding="utf-8"?>
<!-- Generator: Adobe Illustrator 16.0.0, SVG Export Plug-In . SVG Version: 6.00 Build 0)  -->
<!DOCTYPE svg PUBLIC "-//W3C//DTD SVG 1.1//EN" "http://www.w3.org/Graphics/SVG/1.1/DTD/svg11.dtd">
<svg version="1.1" id="图层_1" xmlns="http://www.w3.org/2000/svg" xmlns:xlink="http://www.w3.org/1999/xlink" x="0px" y="0px"
	 width="35.925px" height="38.7px" viewBox="0 0 35.925 38.7" enable-background="new 0 0 35.925 38.7" xml:space="preserve">
<polyline fill="#E8C8BE" points="32.833,38.7 34.857,28.352 34.44,18.602 32.357,17.465 30.357,17.465 28.523,15.268 25.69,16.58 
	24.107,14.326 21.357,14.935 21.357,5.518 19.19,3.016 17.023,4.602 17.023,24.602 14.106,21.358 11.69,20.481 9.606,21.358 
	10.773,25.852 13.44,31.518 18.08,37.102 18.08,38.7 "/>
<path fill="#303232" d="M26.881,21.358h-2v-4.524c0-0.696-0.566-1.262-1.262-1.262s-1.262,0.566-1.262,1.262v4.524h-2v-4.524
	c0-1.799,1.463-3.262,3.262-3.262s3.262,1.463,3.262,3.262V21.358z"/>
<path fill="#303232" d="M31.407,22.112h-2v-4.524c0-0.696-0.566-1.262-1.264-1.262c-0.695,0-1.262,0.566-1.262,1.262v3.016h-2
	v-3.016c0-1.799,1.463-3.262,3.262-3.262s3.264,1.463,3.264,3.262V22.112z"/>
<path fill="#303232" d="M19.342,38.7H18.08h-0.738c0-1.27-0.624-1.973-1.923-3.318c-1.373-1.424-3.253-3.373-4.745-7.153
	c-1.645-4.163-2.279-6.487-2.346-6.738L8.14,20.784l0.614-0.394c0.125-0.079,3.056-1.918,5.56-0.107
	c0.712,0.514,1.162,1.341,1.521,2.19V5.524c0-1.798,1.463-3.262,3.262-3.262c1.799,0,3.262,1.463,3.262,3.262v15.834h-2V5.524
	c0-0.696-0.566-1.262-1.262-1.262c-0.695,0-1.262,0.566-1.262,1.262V27.01l-1.121-0.136c-0.2-0.024-0.708-0.116-1.083-0.44
	c-0.614-0.532-0.954-1.423-1.315-2.366c-0.326-0.854-0.696-1.821-1.171-2.163c-0.886-0.641-1.975-0.404-2.654-0.143
	c0.357,1.168,1.03,3.163,2.044,5.731c1.348,3.411,2.999,5.124,4.325,6.499C18.191,35.374,19.342,36.567,19.342,38.7z"/>
<path fill="#303232" d="M33.668,38.7h-2c0-0.592,0.223-1.51,0.563-2.897c0.871-3.574,2.328-9.558,1.402-15.782
	c-0.203-1.37-0.791-1.416-1.043-1.436c-0.838-0.077-1.512,0.497-1.518,0.502l-1.332-1.491c0.129-0.116,1.34-1.13,3.004-1.005
	c0.908,0.071,2.486,0.572,2.867,3.136c0.984,6.612-0.592,13.077-1.439,16.549C33.913,37.342,33.668,38.348,33.668,38.7z"/>
<path fill="#C74F4E" d="M6.278,12.556C2.816,12.556,0,9.74,0,6.278C0,2.816,2.816,0,6.278,0s6.278,2.816,6.278,6.278
	C12.557,9.74,9.74,12.556,6.278,12.556z M6.278,2C3.919,2,2,3.919,2,6.278s1.919,4.278,4.278,4.278s4.278-1.919,4.278-4.278
	S8.638,2,6.278,2z"/>
<path fill="#C74F4E" d="M7.787,9.54c-0.323,0-0.641-0.156-0.833-0.445L5.278,6.581V4.016c0-0.552,0.447-1,1-1s1,0.448,1,1v1.959
	l1.34,2.01c0.307,0.459,0.183,1.081-0.277,1.387C8.17,9.486,7.978,9.54,7.787,9.54z"/>
</svg>
