<?xml version="1.0" encoding="utf-8"?>
<!-- Generator: Adobe Illustrator 16.0.0, SVG Export Plug-In . SVG Version: 6.00 Build 0)  -->
<!DOCTYPE svg PUBLIC "-//W3C//DTD SVG 1.1//EN" "http://www.w3.org/Graphics/SVG/1.1/DTD/svg11.dtd">
<svg version="1.1" id="图层_1" xmlns="http://www.w3.org/2000/svg" xmlns:xlink="http://www.w3.org/1999/xlink" x="0px" y="0px"
	 width="26.075px" height="41.715px" viewBox="13.038 20.857 26.075 41.715" enable-background="new 13.038 20.857 26.075 41.715"
	 xml:space="preserve">
<polygon fill="#EECCC2" points="19.495,62.572 35.906,62.572 37.661,52.318 35.906,41.338 34.366,41.873 32.7,40.451 31.105,39.401 
	29.066,40.451 26.481,38.199 25.319,39.234 24.498,38.199 24.161,27.668 22.057,26.568 19.495,27.668 19.828,43.068 15.047,44.57 
	13.995,52.318 16.916,57.734 "/>
<path fill="#DD5352" d="M19.722,34.478c-2.797-0.988-4.676-3.645-4.676-6.611c0-3.865,3.145-7.01,7.01-7.01
	c3.865,0,7.009,3.145,7.009,7.01c0,2.966-1.877,5.623-4.672,6.61l-0.666-1.886c1.997-0.705,3.339-2.604,3.339-4.724
	c0-2.763-2.248-5.011-5.01-5.011c-2.763,0-5.01,2.248-5.01,5.01c0,2.12,1.343,4.02,3.342,4.726L19.722,34.478z"/>
<path fill="#303232" d="M29.843,45.231h-2.001v-4.524c0-0.696-0.566-1.262-1.262-1.262s-1.261,0.567-1.261,1.262v0.754h-2v-0.754
	c0-1.799,1.464-3.262,3.261-3.262c1.799,0,3.263,1.464,3.263,3.262V45.231z"/>
<path fill="#303232" d="M34.366,45.984h-2v-4.523c0-0.696-0.566-1.261-1.262-1.261c-0.696,0-1.262,0.566-1.262,1.261v3.771h-2.001
	v-3.771c0-1.798,1.464-3.261,3.263-3.261c1.798,0,3.262,1.463,3.262,3.261V45.984L34.366,45.984z"/>
<path fill="#303232" d="M20.795,50.51h-2V28.643c0-1.798,1.463-3.262,3.262-3.262c1.799,0,3.262,1.464,3.262,3.262V45.23h-2V28.643
	c0-0.696-0.566-1.262-1.262-1.262c-0.696,0-1.262,0.566-1.262,1.262V50.51z"/>
<path fill="#303232" d="M20.795,62.572h-2c0-0.638-0.834-1.762-1.716-2.951c-1.508-2.033-3.573-4.816-3.934-8.383
	c-0.092-0.908-0.125-2.26-0.099-4.016c0.031-1.988,1.392-3.74,3.311-4.262l3.302-0.895l0.523,1.932l-3.302,0.895
	c-1.063,0.287-1.818,1.258-1.834,2.36c-0.025,1.655,0.005,2.964,0.089,3.784c0.305,3.018,2.104,5.443,3.55,7.392
	C19.864,60.017,20.795,61.273,20.795,62.572z"/>
<path fill="#303232" d="M36.628,62.572h-2c0-0.596,0.248-1.431,0.623-2.693c0.955-3.209,2.73-9.18,1.353-15.932
	c-0.291-1.43-0.769-1.467-1.054-1.49c-0.838-0.068-1.511,0.498-1.517,0.504l-1.332-1.492c0.131-0.117,1.325-1.14,3.006-1.006
	c1.503,0.117,2.465,1.155,2.857,3.083c1.478,7.242-0.391,13.526-1.395,16.902C36.904,61.342,36.628,62.267,36.628,62.572z"/>
</svg>
