<?xml version="1.0" encoding="utf-8"?>
<!-- Generator: Adobe Illustrator 16.0.0, SVG Export Plug-In . SVG Version: 6.00 Build 0)  -->
<!DOCTYPE svg PUBLIC "-//W3C//DTD SVG 1.1//EN" "http://www.w3.org/Graphics/SVG/1.1/DTD/svg11.dtd">
<svg version="1.1" id="图层_1" xmlns="http://www.w3.org/2000/svg" xmlns:xlink="http://www.w3.org/1999/xlink" x="0px" y="0px"
	 width="31.465px" height="44.333px" viewBox="15.733 22.167 31.465 44.333" enable-background="new 15.733 22.167 31.465 44.333"
	 xml:space="preserve">
<polyline fill="#EBCAC0" points="45.129,59.906 32.961,65.886 29.25,63.473 23.217,60.446 16.967,54 20.8,51.833 24.831,54.083 
	24.134,50.583 16.967,35.333 18.8,33.499 21.384,34.749 25.384,43.225 27.8,41.583 29.884,41.999 32.301,40.249 35.051,41.916 
	37.801,40.768 43.051,49 "/>
<path fill="#313232" d="M27.048,49.508l-1.912-4.1c-0.76-1.63-0.052-3.575,1.578-4.335c1.63-0.759,3.574-0.052,4.335,1.578
	l1.912,4.101l-1.813,0.845l-1.912-4.1c-0.294-0.631-1.047-0.905-1.677-0.611c-0.631,0.294-0.905,1.047-0.611,1.678l1.912,4.1
	L27.048,49.508z"/>
<path fill="#313232" d="M30.829,46.913l-1.275-2.732c-0.76-1.63-0.052-3.575,1.578-4.335c0.791-0.369,1.675-0.407,2.495-0.109
	c0.818,0.298,1.472,0.897,1.84,1.687l1.912,4.099l-1.813,0.846l-1.912-4.1c-0.143-0.306-0.395-0.538-0.712-0.653
	c-0.317-0.115-0.659-0.1-0.966,0.042c-0.63,0.294-0.904,1.047-0.61,1.678l1.274,2.731L30.829,46.913z"/>
<path fill="#313232" d="M31.643,66.5c-0.536-1.15-1.399-1.525-3.145-2.195c-1.846-0.71-4.374-1.682-7.325-4.477
	c-3.245-3.076-4.806-4.916-4.973-5.116l-0.469-0.56l0.39-0.617c0.078-0.124,1.95-3.025,4.993-2.447
	c0.863,0.164,1.62,0.725,2.303,1.342l-7.162-15.36c-0.368-0.79-0.407-1.676-0.109-2.495c0.297-0.818,0.897-1.472,1.687-1.84
	c0.788-0.369,1.674-0.409,2.493-0.109c0.819,0.298,1.473,0.896,1.841,1.686l6.691,14.35l-1.813,0.846l-6.691-14.351
	c-0.143-0.305-0.396-0.537-0.712-0.653c-0.316-0.114-0.659-0.101-0.965,0.042c-0.305,0.143-0.538,0.396-0.653,0.712
	c-0.115,0.317-0.101,0.66,0.042,0.966l9.081,19.473l-1.073,0.351c-0.192,0.063-0.692,0.194-1.169,0.058
	c-0.78-0.223-1.465-0.885-2.191-1.588c-0.657-0.635-1.4-1.355-1.976-1.465c-1.078-0.205-1.959,0.467-2.466,0.991
	c0.818,0.908,2.272,2.434,4.275,4.33c2.662,2.523,4.882,3.377,6.666,4.063c1.792,0.688,3.339,1.283,4.24,3.218L31.643,66.5z"/>
<path fill="#313232" d="M43.971,60.446c-0.266-0.571-0.408-1.545-0.626-3.018c-0.526-3.578-1.409-9.566-4.829-14.743
	c-0.764-1.157-1.318-0.948-1.553-0.86c-0.793,0.298-1.164,1.098-1.168,1.106l-1.834-0.798c0.068-0.161,0.721-1.589,2.299-2.181
	c0.852-0.318,2.494-0.533,3.924,1.631c3.666,5.546,4.59,11.812,5.141,15.554c0.156,1.061,0.316,2.156,0.459,2.463L43.971,60.446z"/>
<path fill="#D25150" d="M42.05,30.954c-0.13,0-0.261-0.026-0.388-0.079c-10.919-4.596-20.529-3.707-20.624-3.697
	c-0.547,0.055-1.039-0.345-1.094-0.896c-0.055-0.549,0.345-1.039,0.894-1.094c0.411-0.04,10.188-0.96,21.599,3.843
	c0.51,0.215,0.748,0.801,0.535,1.31C42.811,30.723,42.44,30.953,42.05,30.954z"/>
<path fill="#D25150" d="M23.954,30.199c-0.256,0-0.511-0.097-0.707-0.293l-3.016-3.016c-0.391-0.39-0.391-1.023,0-1.414l3.016-3.016
	c0.391-0.391,1.024-0.391,1.414,0c0.391,0.391,0.391,1.023,0,1.414l-2.309,2.309l2.309,2.309c0.391,0.391,0.391,1.024,0,1.414
	C24.467,30.102,24.211,30.199,23.954,30.199z"/>
<path fill="#D25150" d="M44.313,34.345c-1.592,0-2.885-1.294-2.885-2.885s1.293-2.885,2.885-2.885c1.59,0,2.885,1.294,2.885,2.885
	S45.903,34.345,44.313,34.345z M44.313,30.576c-0.488,0-0.885,0.397-0.885,0.885c0,0.488,0.396,0.885,0.885,0.885
	c0.487,0,0.885-0.397,0.885-0.885C45.198,30.973,44.8,30.576,44.313,30.576z"/>
</svg>
