<?xml version="1.0" encoding="utf-8"?>
<!-- Generator: Adobe Illustrator 16.0.0, SVG Export Plug-In . SVG Version: 6.00 Build 0)  -->
<!DOCTYPE svg PUBLIC "-//W3C//DTD SVG 1.1//EN" "http://www.w3.org/Graphics/SVG/1.1/DTD/svg11.dtd">
<svg version="1.1" id="图层_1" xmlns="http://www.w3.org/2000/svg" xmlns:xlink="http://www.w3.org/1999/xlink" x="0px" y="0px"
	 width="27.942px" height="46.096px" viewBox="13.971 23.048 27.942 46.096" enable-background="new 13.971 23.048 27.942 46.096"
	 xml:space="preserve">
<polyline fill="#EBCAC0" points="17.977,63.754 30.293,68.789 40.477,54.928 40.972,51.178 37.969,49.889 36.888,46.76 
	34.138,46.76 32.305,43.677 30.638,43.677 35.302,34.01 33.805,31.756 30.805,32.844 22.972,49.889 21.222,48.344 21.305,45.519 
	17.222,44.094 16.472,52.26 "/>
<path fill="#313232" d="M33.085,51.664l-1.813-0.846l1.911-4.1c0.143-0.305,0.157-0.648,0.041-0.965
	c-0.114-0.317-0.346-0.57-0.652-0.712c-0.631-0.293-1.383-0.019-1.677,0.611l-1.912,4.1l-1.812-0.846l1.912-4.1
	c0.761-1.63,2.706-2.338,4.335-1.577c0.789,0.368,1.389,1.021,1.687,1.84s0.259,1.704-0.108,2.494L33.085,51.664z"/>
<path fill="#313232" d="M36.865,54.26l-1.813-0.846l1.912-4.099c0.293-0.632,0.02-1.384-0.611-1.678
	c-0.629-0.293-1.383-0.02-1.677,0.61l-1.274,2.734l-1.813-0.846l1.274-2.732c0.761-1.631,2.704-2.34,4.335-1.579
	c0.789,0.368,1.389,1.022,1.687,1.84c0.298,0.819,0.259,1.705-0.108,2.494L36.865,54.26z"/>
<path fill="#313232" d="M18.922,64.196l-1.813-0.846c0.536-1.15,0.268-2.051-0.34-3.82c-0.643-1.871-1.524-4.432-1.279-8.489
	c0.219-3.63,0.557-6.169,0.722-7.097l0.127-0.719l0.724-0.097c0.145-0.019,3.576-0.448,5.084,2.251
	c0.428,0.767,0.486,1.707,0.452,2.628l7.162-15.361c0.761-1.63,2.704-2.34,4.335-1.577c1.631,0.76,2.338,2.704,1.578,4.334
	l-6.691,14.35l-1.812-0.846l6.692-14.35c0.143-0.305,0.157-0.648,0.041-0.965c-0.114-0.316-0.347-0.569-0.652-0.712
	c-0.305-0.142-0.648-0.158-0.965-0.042c-0.316,0.115-0.569,0.347-0.712,0.652l-9.08,19.473l-0.958-0.596
	c-0.172-0.107-0.594-0.406-0.796-0.859c-0.332-0.74-0.263-1.691-0.192-2.697c0.065-0.911,0.139-1.945-0.147-2.458
	c-0.532-0.952-1.618-1.198-2.346-1.25c-0.169,1.208-0.402,3.301-0.569,6.059c-0.221,3.66,0.552,5.91,1.174,7.717
	C19.284,60.694,19.823,62.262,18.922,64.196z"/>
<path fill="#313232" d="M31.052,69.144l-1.813-0.845c0.283-0.607,1.002-1.328,2.089-2.418c2.507-2.509,6.698-6.709,8.441-12.574
	c0.394-1.328-0.12-1.618-0.34-1.743c-0.735-0.414-1.58-0.188-1.588-0.186l-0.578-1.914c0.166-0.052,1.68-0.471,3.148,0.359
	c0.793,0.447,2.012,1.568,1.274,4.053c-1.886,6.351-6.303,10.776-8.942,13.42C32.013,68.026,31.187,68.856,31.052,69.144z"/>
<path fill="#D25150" d="M18.753,31.756l-0.775-1.844c11.413-4.804,21.189-3.884,21.599-3.843l-0.198,1.99
	C39.281,28.049,29.674,27.16,18.753,31.756z"/>
<path fill="#D25150" d="M36.461,31.08c-0.257,0-0.512-0.097-0.707-0.293c-0.391-0.39-0.391-1.023,0-1.414l2.31-2.309l-2.31-2.309
	c-0.391-0.391-0.391-1.023,0-1.414s1.023-0.391,1.414,0l3.016,3.016c0.391,0.39,0.391,1.023,0,1.414l-3.016,3.016
	C36.971,30.983,36.716,31.08,36.461,31.08z"/>
<path fill="#D25150" d="M16.857,34.473c-1.591,0-2.886-1.294-2.886-2.885c0-1.591,1.294-2.885,2.886-2.885
	c1.591,0,2.885,1.294,2.885,2.885C19.742,33.179,18.448,34.473,16.857,34.473z M16.857,30.703c-0.489,0-0.886,0.396-0.886,0.885
	c0,0.488,0.397,0.885,0.886,0.885c0.488,0,0.885-0.397,0.885-0.885C17.742,31.1,17.344,30.703,16.857,30.703z"/>
</svg>
